<?xml version="1.0" encoding="UTF-8" standalone="no"?><!-- Generator: Gravit.io --><svg xmlns="http://www.w3.org/2000/svg" xmlns:xlink="http://www.w3.org/1999/xlink" style="isolation:isolate" viewBox="0 0 1700 1200" width="1700pt" height="1200pt"><defs><clipPath id="_clipPath_BNBkCpgmbfUWnzwYzisVBmoTVK9CUyVu"><rect width="1700" height="1200"/></clipPath></defs><g clip-path="url(#_clipPath_BNBkCpgmbfUWnzwYzisVBmoTVK9CUyVu)"><path d=" M 0 0 L 1700 0 L 1700 1200 L 0 1200 L 0 0 Z " fill="rgb(88,101,242)"/><g><path d=" M 935.8 386.9 C 933.7 386.9 931.6 387.1 929.5 387.2 C 939.092 435.113 920.255 484.268 881.1 513.5 C 897.062 557.02 892.185 554.95 898.372 552.687 C 904.558 550.423 921.121 548.216 943.3 546.7 C 960.336 550.572 967.77 555.698 963.073 560.335 C 958.377 564.971 942.181 568.492 920 569.7 C 930.451 547.009 950.027 542.651 963.724 559.965 C 977.42 577.279 980.051 609.709 969.6 632.4 C 113.034 7.355 154.258 -3.814 176.817 -27.963 C 199.375 -52.113 198.467 -84.104 174.542 -108.061 C 150.617 -132.019 108.768 -142.844 69.761 -135.165 C 30.754 -127.485 2.892 -102.937 0 -73.7" fill="rgb(98,112,252)"/><path d=" M 1035.5 617.4 C 1036.572 679.539 988.441 731.463 926.4 735.1 C 6452.968 821.272 11108.255 872.257 11400.276 848.978 C 11692.296 825.7 7510.468 736.972 2059.9 650.8 L 1035.5 617.4 Z " fill="rgb(112,124,255)"/></g><path d=" M 990 243.1 L 579.4 243.1 C 578.205 243.126 577.109 242.44 576.61 241.354 C 576.111 240.269 576.303 238.99 577.1 238.1 C 601.7 208.7 638.5 207.2 678.3 214.9 C 700.7 128.6 801.3 129.6 835.6 182.7 C 872.2 154.5 994.6 151.4 995.8 237.2" fill="rgb(106,119,252)"/><path d=" M 57.9 530.5 C 147.1 485.4 210 520.3 210 520.3 C 254.1 506.6 293 516.2 313 531.9 C 325.5 541.6 297.5 539.9 234.7 539.9 L 60.2 539.9 C 57.439 539.9 55.2 537.661 55.2 534.9" fill="rgb(104,116,247)"/><path d=" M 1525.8 824.6 C 1528.164 837.078 1523.523 849.851 1513.7 857.9" fill="rgb(104,116,247)"/><g><path d=" M 284.3 406.3 C 279.6 384.2 281.9 378.2 266.3 357.4 C 261.3 350.7 238.5 352.1 228.3 354 C 216.2 356.7 203 373.1 203 373.1 C 213.4 429.4 221.9 423.6 225.2 442.1 C 228.5 460.6 225.1 468.4 246.1 468.4 C 267.1 468.4 281.8 459.4 274.9 441.3 C 286.5 437.6 288.7 427.2 284.3 406.3 L 284.3 406.3 Z  M 126.5 328.4 C 122.1 376.4 138.5 374.1 186.9 355.3 L 126.5 328.4 Z " fill="rgb(68,82,242)"/><path d=" M 366.5 370.5 L 323.3 402.5 C 325.6 403.8 326.9 403.9 329.4 402.5 C 331.9 401.1 337.6 394.5 340 392.7 C 342.4 390.9 349 387.2 352.4 385.3 C 356.441 382.981 360.171 380.159 363.5 376.9 C 366.2 373.9 367.2 372.9 366.5 370.5 L 366.5 370.5 Z " fill="rgb(0,0,0)"/><path d=" M 242.3 291.3 C 233.2 287.3 232.9 287.4 227.2 279.6 C 221.5 271.8 215.2 268.6 208.2 268.6 L 223.6 329.3 C 242.2 332 252.3 321.4 253.7 312.1 C 255.1 302.8 251.4 295.3 242.3 291.3 Z " fill="rgb(12,26,173)"/><path d=" M 234.7 300.6 C 231.4 290.9 223.7 280.1 215.5 272.2" fill="rgb(12,26,173)"/><path d=" M 213.4 305.8 C 218.6 294.4 221.3 295.4 233 296.8 C 242.3 297.9 254.9 315 242 326.3 C 229.1 337.6 199.8 336 213.4 305.8 Z " fill="rgb(12,26,173)"/><circle vector-effect="non-scaling-stroke" cx="176.4" cy="277.3" r="3" fill="rgb(0,0,0)"/><circle vector-effect="non-scaling-stroke" cx="194" cy="276" r="3" fill="rgb(0,0,0)"/><mask id="_mask_YzcVD7iEzBbmuHSiRr3hSxzVQa2KbtVZ" x="-200%" y="-200%" width="400%" height="400%"><rect x="-200%" y="-200%" width="400%" height="400%" style="fill:white;"/><path d=" M 194 276 C 210.1 286 204.9 295.6 218.9 311.8" fill="black" stroke="none"/></mask><path d=" M 194 276 C 210.1 286 204.9 295.6 218.9 311.8" fill="none"/><path d=" M 194 276 C 210.1 286 204.9 295.6 218.9 311.8" fill="none" mask="url(#_mask_YzcVD7iEzBbmuHSiRr3hSxzVQa2KbtVZ)" vector-effect="non-scaling-stroke" stroke-width="5.4" stroke="rgb(255,255,255)" stroke-linejoin="miter" stroke-linecap="round" stroke-miterlimit="10"/><path d=" M 180.3 305.5 C 188.7 297.8 191.2 295.7 194.6 295.4 C 198 295.1 203.8 294.9 203.8 294.9 L 205.4 331.6 L 182.6 334.2 L 180.3 305.5 Z " fill="rgb(255,198,25)"/><path d=" M 222.5 286.9 L 224.3 288.6 L 219.8 289.7 L 222.5 286.9 L 222.5 286.9 Z " fill="rgb(0,0,0)"/><path d=" M 232.2 306.9 C 230 304 227.7 300.2 222.4 300.2 L 222.4 306.9 L 232.2 306.9 Z " fill="rgb(255,198,25)"/><path d=" M 221.9 304.8 L 228.2 304.8 C 230.906 304.8 233.1 306.994 233.1 309.7" fill="rgb(255,198,25)"/><path d=" M 220.8 314.4 L 225.2 314.4 C 227.829 314.453 229.947 316.571 230 319.2" fill="rgb(255,198,25)"/><path d=" M 194 325.9 L 209.2 325.9 L 209.2 331.94 L 194 331.94 L 194 325.9 Z " fill="rgb(255,198,25)"/><path d=" M 210.1 307.3 L 200.6 307.3 L 210.1 307.3 Z " fill="rgb(255,198,25)"/><path d=" M 208.1 317.1 L 192.8 317.1 L 194.7 327 L 206.4 327 C 209.3 327 212.2 324.8 212.6 322.1 C 213 319.4 211.1 317.1 208.1 317.1 L 208.1 317.1 Z " fill="rgb(255,198,25)"/><path d=" M 320.7 362.9 C 319.6 348 306.9 347.4 297.9 343.3 C 288.9 339.2 277.8 329.7 266.6 323.6 C 255.4 317.5 246.4 319.2 229.5 327 L 253.7 363 C 265.8 367.2 268.9 373.1 276 380.9 C 283.1 388.7 291.5 390.7 299.6 388.1 C 304.6 394.4 305.6 395.9 311.5 392.9 C 317.4 389.9 327.3 383.6 329.2 375.2 C 331.1 366.8 326.8 365.8 320.7 362.9 L 320.7 362.9 Z " fill="rgb(102,188,255)"/><path d=" M 313.1 388 L 313 388 C 307.7 387.4 305.2 384.8 301.4 380.8 C 300.5 379.7 299.4 378.6 298.1 377.3 C 283.5 376.4 276.8 369.6 273 364.6 C 271.3 362.2 268.3 360.6 265.4 358.9 C 262.5 357.2 259.8 355.7 257.9 353.4" fill="rgb(69,170,247)"/><path d=" M 266.6 410.7 C 255.2 423.8 244.1 422.2 239.1 422.3 C 234.1 422.4 234.2 418.8 233.4 415.9 C 232.6 413 231.9 408.3 231.9 408.3 C 219.2 409.3 216.7 401 215.6 393.4 C 214.8 387.6 212.4 385 210.9 379.8" fill="rgb(140,217,255)"/><path d=" M 158.1 362 C 156.5 352.3 159.6 344.9 166.2 342.8 L 147.7 333.5 L 136 340.5 C 142.16 348.811 149.623 356.071 158.1 362 L 158.1 362 Z " fill="rgb(0,0,0)"/><path d=" M 242.8 416.8 L 242.8 415 C 240.3 414.9 239.9 413.1 238.3 404.7 L 238.1 403.6 L 237.4 403.6 C 231.7 403 227.6 400.3 226.1 389.1 C 227.421 402.282 221.726 415.189 211.1 423.1" fill="rgb(102,188,255)"/><path d=" M 180.3 303.5 C 176 300.6 172.9 301.3 168.3 304 C 162.6 300.2 155.9 300.4 149.2 303.8 C 144.3 306.2 132.3 311.6 126.3 314.3" fill="rgb(12,26,173)"/><path d=" M 180.3 303.5 C 176 300.6 172.9 301.3 168.3 304 C 162.6 300.2 155.9 300.4 149.2 303.8 C 144.3 306.2 132.3 311.6 126.3 314.3 M 169.3 304.5 C 181.8 312.2 185.4 322.2 186.9 328.9" fill="none" vector-effect="non-scaling-stroke" stroke-width="2.201" stroke="rgb(0,0,0)" stroke-linejoin="miter" stroke-linecap="round" stroke-miterlimit="10"/><line x1="255.6" y1="258.2" x2="238.5" y2="258.2"/><path d=" M 294.9 262.9 C 305.3 262.9 315.2 254.5 316.8 244.2 L 316.8 243.7 C 318.5 233.5 311.2 225 300.8 225 L 243 225 C 232.6 225 222.7 233.5 221.1 243.7 L 221.1 244.2 C 219.4 254.5 226.6 262.9 237.1 262.9 L 294.9 262.9 Z " fill="rgb(255,255,255)"/><path d=" M 184.6 270.7 C -3.316 -5.458 -3.933 -1.999 -4.044 2.272 C -4.156 6.542 -3.74 10.721 -3.001 12.745 C -2.262 14.768 -1.357 14.21 -0.732 11.345 C -0.107 8.48 0.105 3.913 -0.2 -0.1 C -2.814 2.282 -7.508 2.623 -10.684 0.663 C -13.859 -1.298 -14.314 -4.818 -11.7 -7.2 L 184.6 270.7 Z " fill="rgb(255,198,25)"/><mask id="_mask_DpX0CNRbHW2Nt2rRCBfeWuhzbypaZb3A" x="-200%" y="-200%" width="400%" height="400%"><rect x="-200%" y="-200%" width="400%" height="400%" style="fill:white;"/><line x1="208.1" y1="317.1" x2="200" y2="317.1" fill="black" stroke="none"/></mask><line x1="208.1" y1="317.1" x2="200" y2="317.1" mask="url(#_mask_DpX0CNRbHW2Nt2rRCBfeWuhzbypaZb3A)" vector-effect="non-scaling-stroke" stroke-width="4.402" stroke="rgb(0,0,0)" stroke-linejoin="miter" stroke-linecap="round" stroke-miterlimit="10"/><mask id="_mask_aQ6adqP4ImrfFUtcObvbajDGJnJvyyNI" x="-200%" y="-200%" width="400%" height="400%"><rect x="-200%" y="-200%" width="400%" height="400%" style="fill:white;"/><line x1="222.4" y1="314.7" x2="226.9" y2="314.7" fill="black" stroke="none"/></mask><line x1="222.4" y1="314.7" x2="226.9" y2="314.7" mask="url(#_mask_aQ6adqP4ImrfFUtcObvbajDGJnJvyyNI)" vector-effect="non-scaling-stroke" stroke-width="4.402" stroke="rgb(0,0,0)" stroke-linejoin="miter" stroke-linecap="round" stroke-miterlimit="10"/><path d=" M 181.4 233.3 C 184.1 225 183.2 219.7 182 216.8 M 194.1 245.2 C 199.6 244.9 203 243.1 205.9 240 M 184.6 270.7 C 184.724 271.73 184.724 272.77 184.6 273.8 M 169.1 259.7 C 164.4 264.1 156.6 264.6 151 263.7 M 169.7 241.8 C 167.3 238.1 163.2 234.1 159.7 232.9" fill="none" vector-effect="non-scaling-stroke" stroke-width="2.201" stroke="rgb(0,0,0)" stroke-linejoin="miter" stroke-linecap="round" stroke-miterlimit="10"/><path d=" M 178.7 247.8 C 182.2 256.6 185.2 255.7 186.2 252.8 C 187.2 249.9 187.9 246.2 190.2 246.2 C 192.5 246.2 192.2 250 190.2 255.9 C 188.2 261.8 184.1 263.7 179.5 259.5 C 174.9 255.3 174.3 250.5 173.8 247.2 C 173.3 243.9 176.7 242.7 178.7 247.8 L 178.7 247.8 Z " fill="rgb(196,6,85)"/><mask id="_mask_gQtO3gxVyQ1s9tvpj8Eajlf3zGw1sbay" x="-200%" y="-200%" width="400%" height="400%"><rect x="-200%" y="-200%" width="400%" height="400%" style="fill:white;"/><path d=" M 176.4 277.3 C 180.2 296.1 171.4 306.5 170.6 325.9" fill="black" stroke="none"/></mask><path d=" M 176.4 277.3 C 180.2 296.1 171.4 306.5 170.6 325.9" fill="none"/><path d=" M 176.4 277.3 C 180.2 296.1 171.4 306.5 170.6 325.9" fill="none" mask="url(#_mask_gQtO3gxVyQ1s9tvpj8Eajlf3zGw1sbay)" vector-effect="non-scaling-stroke" stroke-width="5.4" stroke="rgb(255,255,255)" stroke-linejoin="miter" stroke-linecap="round" stroke-miterlimit="10"/><mask id="_mask_f9diJYrB6zxvbVTDIA8J1SdnSbAIoKva" x="-200%" y="-200%" width="400%" height="400%"><rect x="-200%" y="-200%" width="400%" height="400%" style="fill:white;"/><line x1="131.5" y1="312" x2="121.6" y2="316.7" fill="black" stroke="none"/></mask><line x1="131.5" y1="312" x2="121.6" y2="316.7" mask="url(#_mask_f9diJYrB6zxvbVTDIA8J1SdnSbAIoKva)" vector-effect="non-scaling-stroke" stroke-width="4.402" stroke="rgb(0,0,0)" stroke-linejoin="miter" stroke-linecap="round" stroke-miterlimit="10"/><mask id="_mask_jk3iRXAR60UkbRzT6DkZjzOxQpaBKgVZ" x="-200%" y="-200%" width="400%" height="400%"><rect x="-200%" y="-200%" width="400%" height="400%" style="fill:white;"/><line x1="234.5" y1="296.5" x2="240.2" y2="297.4" fill="black" stroke="none"/></mask><line x1="234.5" y1="296.5" x2="240.2" y2="297.4" mask="url(#_mask_jk3iRXAR60UkbRzT6DkZjzOxQpaBKgVZ)" vector-effect="non-scaling-stroke" stroke-width="4.402" stroke="rgb(0,0,0)" stroke-linejoin="miter" stroke-linecap="round" stroke-miterlimit="10"/><path d=" M 364.3 373.8 C 364.711 374.189 365.111 374.589 365.5 375 C 359.13 376.49 357.94 369.918 360.343 364.919 C 362.745 359.921 367.83 358.39 371.7 361.5 C 373.776 364.883 378.312 366.73 382.821 366.028 C 387.33 365.325 390.724 362.244 391.144 358.472 C 391.563 354.7 388.905 351.148 384.628 349.763 C 380.351 348.378 375.486 349.494 372.7 352.5 C 374.257 353.792 373.536 352.609 374.648 351.561 C 375.76 350.513 378.505 349.789 381.7 349.7" fill="rgb(255,231,92)"/><path d=" M 280.6 391.8 C 273.3 390.9 266.5 395.2 261.4 408.1 C 259.5 407 254.9 406.1 248.3 408.3 C 241.7 410.5 239.7 413.6 238.8 416.1 L 280.6 391.8 Z " fill="rgb(209,21,131)"/><path d=" M 280.6 391.8 C 273.3 390.9 266.5 395.2 261.4 408.1 C 260.8 409.7 260.2 411.7 259.6 413.9 C 252.3 414.3 249.2 417.9 248.8 425.1 C 248.8 425.1 243.5 422.6 241 426.8 C 241.1 427.2 241.3 427.6 241.4 428 C 243.4 433.8 243.2 439.1 246.7 439.2 L 289.5 399.3 C 289.5 399.3 290 393 280.6 391.8 Z " fill="rgb(250,128,186)"/><path d=" M 289.1 397.3 L 285.3 394.7 C 279.3 394.5 274.3 395 269.7 401.7 C 265.1 408.4 262.4 415.3 257.3 420 C 250 426.9 243.7 430.2 243.1 434.6 C 243.8 437.3 244.6 439.1 246.7 439.2 L 289.5 399.3" fill="rgb(255,231,92)"/><line x1="282.6" y1="392.9" x2="286.1" y2="393.4"/><path d=" M 246.9 439.2 C 259 439.9 263.9 435.5 268.4 429.5" fill="rgb(0,0,0)"/><path d=" M 242.656 417.424 C 242.6 416.045 243.272 414.897 244.154 414.862 C 245.036 414.826 245.798 415.917 245.853 417.295 C 245.908 418.674 245.237 419.822 244.355 419.858 C 243.472 419.893 242.711 418.802 242.656 417.424 Z " fill="rgb(255,255,255)"/><path d=" M 366.9 368.6 C 365.647 368.831 364.37 368.898 363.1 368.8" fill="rgb(209,21,131)"/><path d=" M 315.425 387.862 C 314.807 385.974 315.328 384.106 316.587 383.695 C 317.846 383.283 319.37 384.482 319.987 386.371 C 320.604 388.26 320.083 390.127 318.824 390.538 C 317.565 390.95 316.042 389.751 315.425 387.862 Z " fill="rgb(255,255,255)"/></g><g><path d=" M 488.9 731.9 C 484.2 725.9 482.2 726.9 478.7 726.9 C 478.7 721 475.9 720.5 474.6 725.4 C 473.3 730.3 472.5 732.6 475.7 737.3 C 478.9 742 483.2 748.9 485.1 757.1 L 488.9 731.9 Z " fill="rgb(255,198,25)"/><path d=" M 350.2 707.9 C 360.6 708 368.4 708.4 379.4 711.9" fill="rgb(189,233,255)"/><circle vector-effect="non-scaling-stroke" cx="271.2" cy="806.2" r="112.69999999999999" fill="rgb(12,26,173)"/><path d=" M 179.8 785.6 C 172.4 782.8 171.3 781.5 169.5 778 C 167.7 774.5 166.7 775.2 163 774.7 C 162.7 775.7 162.4 776.6 162.2 777.6 C 177 787.3 181.1 808.3 181.1 808.3 L 187.3 805.4 C 187.3 805.4 187.3 788.3 179.8 785.6 L 179.8 785.6 Z " fill="rgb(250,148,196)"/><path d=" M 347.9 887.4 C 324.7 887.4 282.5 891.9 257.8 864 C 275.7 884.2 284.1 899.4 284.7 918" fill="rgb(0,0,0)"/><path d=" M 175.8 806.2 C 189.7 792.5 229.1 782.8 261.2 806.2 L 273.6 793.1 C 272.6 771.5 267.8 770.2 261.2 777.1 C 254.6 784 253.2 777.8 246.7 766.1 C 240.2 754.4 232 752.2 226.1 764.2 C 220.2 776.2 221.5 776.6 216.6 774.9 C 211.7 773.2 202.6 768.8 195 767.7 C 187.4 766.6 183.8 777.4 184.5 785.6 C 185.2 793.8 183.1 793.5 179.2 791.9 C 175.3 790.3 174.3 795.3 175.8 806.2 L 175.8 806.2 Z " fill="rgb(250,128,186)"/><path d=" M 498.5 806.2 C 501.9 795.2 502.9 795 480.3 795.9 C 459.5 796.7 433.2 797.5 409.1 799.3 C 407.9 784.7 403.2 778.9 397.9 771.3 C 399.9 747.2 395.5 723.8 371.6 718.1 C 347.7 712.4 312.5 711.2 289.1 719.9 C 265.7 728.6 272.3 762.1 274.8 784.8 C 274.8 784.8 254.1 791.5 246.3 812 C 239.8 829.3 242.9 849.9 261.4 867.7 C 291.1 896.3 321 899.4 349.3 896.1 C 371.3 893.4 382.4 876.6 385.5 860.3 C 425.8 875.4 451.4 852.7 460.3 841.8 C 470.8 829.2 485.7 825.1 494.7 821.2 C 503.7 817.3 507.5 813.8 498.5 806.2 L 498.5 806.2 Z " fill="rgb(42,209,125)"/><path d=" M 302 681.8 C 293.5 681.3 284.5 686.9 290.5 703 C 281.3 702.1 272.1 707.2 278.6 722.3 L 320.9 707.9 C 317.2 689.3 310.5 682.4 302 681.8 L 302 681.8 Z " fill="rgb(250,128,186)"/><path d="M 281.4 741.4 L 281.4 741.4 C 291.721 741.4 300.1 749.779 300.1 760.1 L 300.1 789.59 C 300.1 799.911 291.721 808.29 281.4 808.29 L 281.4 808.29 C 271.079 808.29 262.7 799.911 262.7 789.59 L 262.7 760.1 C 262.7 749.779 271.079 741.4 281.4 741.4 Z" style="stroke:none;fill:#000000;stroke-miterlimit:10;"/><path d=" M 355.6 709.2 L 355.6 715.2 C 338 712.9 316.2 712.7 298.3 717.1" fill="rgb(255,255,255)"/><path d=" M 321.9 706.3 C 311.5 706.3 303.7 706.8 292.7 710.2" fill="rgb(189,233,255)"/><path d=" M 416.6 804.3 C 392.2 805.5 365.2 807.1 355.4 807.5 C 345.6 807.9 339.8 808.2 338.1 812.9 C 336.4 817.6 349.8 818.3 366.7 819.4 C 383.6 820.5 421.7 820.3 443.7 819.4 L 416.6 804.3 Z " fill="rgb(3,156,120)"/><path d=" M 391.1 813.6 C 392.1 799 397.7 798.2 400.1 802.1 C 401.492 803.235 402.765 804.508 403.9 805.9" fill="rgb(255,255,255)"/><path d=" M 488.2 808.6 C 473.6 810.9 447.1 813.2 413.1 813.6 C 412.2 805.2 414.8 797.9 425.1 789.9 C 429.6 786.4 429.2 783.8 428.8 781.5 C 427.5 773.2 424.3 764.9 419.5 754.2 C 412.2 737.7 411.3 724.1 423.4 716.7 C 435.5 709.3 449.4 713.5 458.7 727.2 C 468 740.9 488.5 771 488.2 808.6 Z " fill="rgb(255,198,25)"/><path d=" M 447.4 734.6 C 456.4 743.1 459.8 742.1 461.8 741.6 C 463.8 741.1 462.1 736 461 733.7 L 447.4 734.6 Z " fill="rgb(255,174,0)"/><path d=" M 468.2 811 C 474.1 800 477.2 796.9 480.8 798.1 C 484.4 799.3 484.1 809.2 484.1 809.2 L 468.2 811 Z  M 447.9 812.5 C 452.7 796.1 458.6 798.2 460.6 800.9 C 462.6 803.6 464.6 811.3 464.6 811.3 L 447.9 812.5 Z  M 432.7 746.5 C 433.4 750.6 432 754 429.9 754.5 C 427.8 755 425.8 752.9 424.6 749.7 C 423.4 746.5 423.8 741.3 426 739.9 C 428.2 738.5 431.8 741.5 432.7 746.5 L 432.7 746.5 Z " fill="rgb(255,255,255)"/><path d=" M 447.4 734.6 C 444.9 731.5 446.3 725.8 449.4 720.6 C 452.5 715.4 456.8 713.6 460.4 713.6 C 464 713.6 465.1 717.2 460.9 727.2 C 466.2 726.3 468.6 726.4 469.1 729.3 C 469.6 732.2 466.1 734.3 458.2 735.6 C 450.3 736.9 448.8 736.3 447.4 734.6 Z " fill="rgb(237,95,0)"/><path d=" M 478.5 726.3 C 479.9 722.5 481.5 722.1 482.3 722.5 C 483.1 722.9 482.9 724.7 482.1 728.3 C 481.3 731.9 477.2 729.8 478.5 726.3 Z " fill="rgb(255,198,25)"/><path d=" M 481.4 726.9 C 484.5 724.3 486.1 724.6 486.6 725.4 C 487.1 726.2 486.1 727.6 483.7 730.4 C 481.3 733.2 478.6 729.3 481.4 726.9 Z " fill="rgb(255,198,25)"/><path d=" M 343 773.8 C 349.3 773.9 351.7 772.8 352.4 770.2 C 353.1 767.6 348.9 762.1 340.3 761.5 C 331.7 760.9 325.9 764.9 324.6 770.1 C 323.3 775.3 326.1 774.2 332 773.9" fill="rgb(255,255,255)"/><line x1="268.1" y1="747" x2="272.6" y2="747"/><path d=" M 267 747 L 279.9 747 L 279.9 789.8 C 283.889 789.698 287.7 791.447 290.224 794.537 C 292.747 797.628 293.698 801.712 292.8 805.6" fill="rgb(255,255,255)"/><path d=" M 362.2 739.8 C 354.9 739.8 352.4 737.8 347.2 730.9 C 342 724 335.7 713.4 318.4 714 C 307.3 698.3 312 679.6 323.1 670.4 C 334.2 661.2 356.5 661.2 364.5 675.6 C 368.8 683.2 370.5 691.5 367.6 706.3 C 377 703.6 380.6 710 379.2 718 C 377.8 726 371.2 739.8 362.2 739.8 L 362.2 739.8 Z " fill="rgb(250,128,186)"/><path d="M 264.9 764.2 L 265 764.2 C 267.042 764.2 268.7 765.858 268.7 767.9 L 268.7 781.93 C 268.7 783.972 267.042 785.63 265 785.63 L 264.9 785.63 C 262.858 785.63 261.2 783.972 261.2 781.93 L 261.2 767.9 C 261.2 765.858 262.858 764.2 264.9 764.2 Z" style="stroke:none;fill:#FF78B9;stroke-miterlimit:10;"/><path d=" M 351.8 750.9 C 340.5 750.6 334.4 750.7 324.3 752 M 392.3 752.4 C 385.5 750.8 381.3 750.6 373.7 750.6" fill="none" vector-effect="non-scaling-stroke" stroke-width="6.866" stroke="rgb(0,0,0)" stroke-linejoin="miter" stroke-linecap="round" stroke-miterlimit="10"/><mask id="_mask_YaDQLb2f2jFKsFoYdEWhPPZDUFyJTBU8" x="-200%" y="-200%" width="400%" height="400%"><rect x="-200%" y="-200%" width="400%" height="400%" style="fill:white;"/><path d=" M 490.2 808.3 C 468.1 812 412.9 816.2 344.6 811.7" fill="black" stroke="none"/></mask><path d=" M 490.2 808.3 C 468.1 812 412.9 816.2 344.6 811.7" fill="none"/><path d=" M 490.2 808.3 C 468.1 812 412.9 816.2 344.6 811.7" fill="none" mask="url(#_mask_YaDQLb2f2jFKsFoYdEWhPPZDUFyJTBU8)" vector-effect="non-scaling-stroke" stroke-width="4.578" stroke="rgb(0,0,0)" stroke-linejoin="miter" stroke-linecap="round" stroke-miterlimit="10"/><path d=" M 383 859.7 C 376.8 868.2 368.1 876.1 351.9 879.4 C 327.7 884.2 315.1 861.4 313.3 842.5 C 312.6 834.4 312.3 825.8 315.9 834.8 C 322.9 851.8 338.7 854.3 350.5 854 C 362.3 853.7 367.6 854.9 383 859.7 L 383 859.7 Z " fill="rgb(3,156,120)"/><mask id="_mask_afvXMubCK8vnkBplH8LbwTwXyJhMAEVK" x="-200%" y="-200%" width="400%" height="400%"><rect x="-200%" y="-200%" width="400%" height="400%" style="fill:white;"/><path d=" M 255.1 873.9 C 262.3 877.6 271.2 877.9 271.2 877.9" fill="black" stroke="none"/></mask><path d=" M 255.1 873.9 C 262.3 877.6 271.2 877.9 271.2 877.9" fill="none"/><path d=" M 255.1 873.9 C 262.3 877.6 271.2 877.9 271.2 877.9" fill="none" mask="url(#_mask_afvXMubCK8vnkBplH8LbwTwXyJhMAEVK)" vector-effect="non-scaling-stroke" stroke-width="4.578" stroke="rgb(0,0,0)" stroke-linejoin="miter" stroke-linecap="round" stroke-miterlimit="10"/><path d=" M 327.108 835.895 C 323.078 832.044 321.571 827.071 323.744 824.796 C 325.918 822.522 330.954 823.802 334.984 827.653 C 339.014 831.505 340.522 836.478 338.348 838.752 C 336.175 841.027 331.138 839.746 327.108 835.895 Z " fill="rgb(3,171,131)"/><path d=" M 359.4 738.7 C 366.2 731.2 369.5 720.4 370.6 713 M 347.2 728.6 C 353 705 353 679.9 337 671.1" fill="none" vector-effect="non-scaling-stroke" stroke-width="2.289" stroke="rgb(235,69,159)" stroke-linejoin="miter" stroke-linecap="round" stroke-miterlimit="10"/><path d=" M 252.245 831.597 C 251.645 827.893 253.016 824.584 255.304 824.213 C 257.592 823.843 259.937 826.55 260.537 830.254 C 261.137 833.959 259.767 837.268 257.479 837.638 C 255.19 838.009 252.845 835.302 252.245 831.597 Z " fill="rgb(87,242,135)"/><mask id="_mask_3SeqqShFquq2JxihXpBaLZgV8u25QSyz" x="-200%" y="-200%" width="400%" height="400%"><rect x="-200%" y="-200%" width="400%" height="400%" style="fill:white;"/><line x1="333.2" y1="811.7" x2="338.3" y2="804.9" fill="black" stroke="none"/></mask><line x1="333.2" y1="811.7" x2="338.3" y2="804.9" mask="url(#_mask_3SeqqShFquq2JxihXpBaLZgV8u25QSyz)" vector-effect="non-scaling-stroke" stroke-width="4.578" stroke="rgb(0,0,0)" stroke-linejoin="miter" stroke-linecap="round" stroke-miterlimit="10"/><path d=" M 426.491 744.492 C 425.802 743.048 426.011 741.508 426.957 741.057 C 427.903 740.605 429.231 741.412 429.92 742.856 C 430.609 744.301 430.4 745.84 429.454 746.292 C 428.507 746.743 427.18 745.937 426.491 744.492 Z " fill="rgb(0,0,0)"/><path d=" M 450.6 731.2 C 455.322 731.31 459.06 735.228 458.95 739.95 C 458.84 744.672 454.922 748.41 450.2 748.3 C 453.699 744.064 454.801 744.064 455.8 744.5 C 455.726 762.246 459.18 775.71 463.516 775.572 C 467.851 775.434 471.426 761.746 471.5 745 C 472.6 745.1 472.6 745.6 471.8 746 C 471 746.4 466.8 748 456.5 748.8 L 450.6 731.2 Z " fill="rgb(0,0,0)"/><mask id="_mask_UiKypkgEopoOdSL6U9Z2VfSIFMzf6K8k" x="-200%" y="-200%" width="400%" height="400%"><rect x="-200%" y="-200%" width="400%" height="400%" style="fill:white;"/><path d=" M 442.1 791.4 C 443.2 801.1 435.1 813.1 435.1 813.1" fill="black" stroke="none"/></mask><path d=" M 442.1 791.4 C 443.2 801.1 435.1 813.1 435.1 813.1" fill="none"/><path d=" M 442.1 791.4 C 443.2 801.1 435.1 813.1 435.1 813.1" fill="none" mask="url(#_mask_UiKypkgEopoOdSL6U9Z2VfSIFMzf6K8k)" vector-effect="non-scaling-stroke" stroke-width="4.578" stroke="rgb(0,0,0)" stroke-linejoin="miter" stroke-linecap="round" stroke-miterlimit="10"/><path d=" M 288.9 889.8 L 288.1 889.2 L 288.9 888.7 C 289.8 888.1 290.7 887.4 290.6 886.5 C 290.5 885.6 289.6 885 288.7 884.6 L 287.8 884.1 L 288.9 889.8 Z " fill="rgb(255,255,255)"/><mask id="_mask_16FH2xFGH9DF1WXRktXt6V4eDkiaOqyL" x="-200%" y="-200%" width="400%" height="400%"><rect x="-200%" y="-200%" width="400%" height="400%" style="fill:white;"/><line x1="485.1" y1="757.1" x2="489.7" y2="758.7" fill="black" stroke="none"/></mask><line x1="485.1" y1="757.1" x2="489.7" y2="758.7" mask="url(#_mask_16FH2xFGH9DF1WXRktXt6V4eDkiaOqyL)" vector-effect="non-scaling-stroke" stroke-width="4.578" stroke="rgb(0,0,0)" stroke-linejoin="miter" stroke-linecap="round" stroke-miterlimit="10"/><path d=" M 203.2 874.9 C 198.8 872.8 193.2 873.9 185 878.8" fill="rgb(42,209,125)"/><path d=" M 209.1 887.4 C 215.6 886.6 220 886 223 890.1 C 226 894.2 226 898.8 224.3 907.2 C 222.6 915.6 218.5 924.2 212.1 923.6 C 205.7 923 203.3 919.3 205.6 910" fill="rgb(42,209,125)"/><path d=" M 223 897.1 C 227.8 897 233.6 896.7 235.2 901.9 C 236.8 907.1 235.4 913.9 232.2 919.3 C 229 924.7 224.7 925.9 221.5 924 C 218.3 922.1 218.2 920.5 220.7 913.5 C 223.2 906.5 223.9 903.6 223 897.1 Z " fill="rgb(42,209,125)"/><path d=" M 253.8 909.9 C 249.2 909.6 240.5 909.5 234.4 909.2 L 232.8 912.1" fill="rgb(42,209,125)"/><mask id="_mask_mU8zZsuqZwdDJxXxlSKEXkQfIo3e0mer" x="-200%" y="-200%" width="400%" height="400%"><rect x="-200%" y="-200%" width="400%" height="400%" style="fill:white;"/><path d=" M 312.9 806.9 C 314.6 800.9 320.5 794.7 323.2 792.9" fill="black" stroke="none"/></mask><path d=" M 312.9 806.9 C 314.6 800.9 320.5 794.7 323.2 792.9" fill="none"/><path d=" M 312.9 806.9 C 314.6 800.9 320.5 794.7 323.2 792.9" fill="none" mask="url(#_mask_mU8zZsuqZwdDJxXxlSKEXkQfIo3e0mer)" vector-effect="non-scaling-stroke" stroke-width="4.578" stroke="rgb(3,156,120)" stroke-linejoin="miter" stroke-linecap="round" stroke-miterlimit="10"/><mask id="_mask_KaLSRX16bysQ7GovvHSg72WuPQ8JPuOl" x="-200%" y="-200%" width="400%" height="400%"><rect x="-200%" y="-200%" width="400%" height="400%" style="fill:white;"/><line x1="319.2" y1="772" x2="314.7" y2="769.4" fill="black" stroke="none"/></mask><line x1="319.2" y1="772" x2="314.7" y2="769.4" mask="url(#_mask_KaLSRX16bysQ7GovvHSg72WuPQ8JPuOl)" vector-effect="non-scaling-stroke" stroke-width="4.578" stroke="rgb(3,156,120)" stroke-linejoin="miter" stroke-linecap="round" stroke-miterlimit="10"/></g><line x1="240.6" y1="690.9" x2="NaN" y2="NaN"/><path d=" M 1464.3 954.2" fill="rgb(52,66,217)"/><line x1="789.5" y1="845.4" x2="NaN" y2="NaN"/><line x1="843.2" y1="146.5" x2="836.2" y2="NaN"/><g><circle vector-effect="non-scaling-stroke" cx="1427.5" cy="531.4" r="98.70000000000005" fill="rgb(102,188,255)"/><circle vector-effect="non-scaling-stroke" cx="1427.5" cy="531.4" r="98.70000000000005" fill="rgb(102,188,255)"/><circle vector-effect="non-scaling-stroke" cx="1427.5" cy="531.4" r="98.70000000000005" fill="rgb(102,188,255)"/><circle vector-effect="non-scaling-stroke" cx="1427.5" cy="531.4" r="108.09999999999991" fill="none" stroke-width="6.883" stroke="rgb(41,204,122)" stroke-linejoin="miter" stroke-linecap="butt" stroke-miterlimit="10"/><path d=" M 1354.8 562 C 1381.807 559.957 1405.357 580.193 1407.4 607.2 C 1409.443 634.207 1389.207 657.757 1362.2 659.8" fill="rgb(235,69,159)"/><path d=" M 1344.2 570.2 C 1344.5 571.9 1349.1 574.1 1355.7 575.1 C 1362.3 576.1 1367.5 575.3 1368.2 573.7 L 1344.2 570.2 Z " fill="rgb(191,15,118)"/><path d=" M 1382.9 507.9 C 1380.8 507.6 1378.3 508.6 1375.3 515.1 C 1375.6 506.9 1375.4 498.7 1375.4 494.8 C 1375.4 490.9 1373.6 489.7 1371.5 489.5" fill="rgb(255,231,92)"/><path d=" M 1371.9 522.7 C 1372.241 522.607 1372.507 522.341 1372.6 522" fill="rgb(0,0,0)"/><path d=" M 1352.6 544.2 C 1352.4 548.3 1352.5 554 1352.5 554 L 1367.9 555.1 L 1368.8 541.9 L 1352.6 544.2 Z " fill="rgb(255,231,92)"/><path d=" M 1416.3 546.9 C 1393.8 551.2 1388.5 569.6 1390.3 590.7 C 1380.3 597.2 1376.6 604.7 1376.7 616" fill="rgb(235,69,159)"/><path d=" M 1380.5 575.1 C 1367.9 579.3 1360.1 588.6 1358.1 601.6" fill="rgb(235,69,159)"/><path d=" M 1419.5 560.2 C 1409 539 1403.4 536.8 1404.5 530.3 C 1405.6 523.8 1420.1 523.4 1439.4 523.5 C 1458.7 523.6 1438.4 559 1438.4 559 L 1419.5 560.2 Z " fill="rgb(0,0,0)"/><mask id="_mask_KV4Dp8irUmpT1RsNXmfGJaPDym7rjtJX" x="-200%" y="-200%" width="400%" height="400%"><rect x="-200%" y="-200%" width="400%" height="400%" style="fill:white;"/><path d=" M 1416.3 546.9 C 1393.8 551.2 1388.5 569.6 1390.3 590.7 C 1380.9 596.8 1377.1 603.9 1376.7 614.1" fill="black" stroke="none"/></mask><path d=" M 1416.3 546.9 C 1393.8 551.2 1388.5 569.6 1390.3 590.7 C 1380.9 596.8 1377.1 603.9 1376.7 614.1" fill="none"/><path d=" M 1416.3 546.9 C 1393.8 551.2 1388.5 569.6 1390.3 590.7 C 1380.9 596.8 1377.1 603.9 1376.7 614.1" fill="none" mask="url(#_mask_KV4Dp8irUmpT1RsNXmfGJaPDym7rjtJX)" vector-effect="non-scaling-stroke" stroke-width="4.476" stroke="rgb(0,0,0)" stroke-linejoin="round" stroke-linecap="round" stroke-miterlimit="4"/><mask id="_mask_vjl7yjCyDMUa5hItfKTQcoXpQwlJnr4B" x="-200%" y="-200%" width="400%" height="400%"><rect x="-200%" y="-200%" width="400%" height="400%" style="fill:white;"/><path d=" M 1447.3 554 C 1424.3 564.2 1427.3 571.7 1434.1 591.5" fill="black" stroke="none"/></mask><path d=" M 1447.3 554 C 1424.3 564.2 1427.3 571.7 1434.1 591.5" fill="none"/><path d=" M 1447.3 554 C 1424.3 564.2 1427.3 571.7 1434.1 591.5" fill="none" mask="url(#_mask_vjl7yjCyDMUa5hItfKTQcoXpQwlJnr4B)" vector-effect="non-scaling-stroke" stroke-width="4.476" stroke="rgb(255,255,255)" stroke-linejoin="round" stroke-linecap="round" stroke-miterlimit="4"/><linearGradient id="_lgradient_0" x1="0.7442058463670769" y1="1.0965635169800478" x2="0.639321819505285" y2="0.6178705986150672" gradientTransform="matrix(55.652,0,0,93.824,1471.573,416.576)" gradientUnits="userSpaceOnUse"><stop offset="0%" stop-opacity="1" style="stop-color:rgb(255,231,92)"/><stop offset="100%" stop-opacity="1" style="stop-color:rgb(255,198,25)"/></linearGradient><path d=" M 1473.8 428.5 C 1480.6 419.8 1489.6 414.9 1498.1 417.1 C 1506.6 419.3 1508.4 424.1 1513 450.3 C 1528.9 458.7 1530.8 460.9 1518.2 479.2 C 1529.8 490.7 1531.3 496.6 1516.3 509.6 L 1499.8 510.4 C 1485.7 498.7 1483.2 498.2 1490 481.3 C 1467.7 454.6 1470.5 449.7 1473.8 428.5 L 1473.8 428.5 Z " fill="url(#_lgradient_0)"/><mask id="_mask_TN0Jd4ojqoyfRjS8bcEH5GGLnQM4EgW1" x="-200%" y="-200%" width="400%" height="400%"><rect x="-200%" y="-200%" width="400%" height="400%" style="fill:white;"/><path d=" M 1495.3 482.7 C 1495.3 479.5 1496.9 477 1498.8 477 C 1500.7 477 1502.4 479.5 1502.4 482.7" fill="black" stroke="none"/></mask><path d=" M 1495.3 482.7 C 1495.3 479.5 1496.9 477 1498.8 477 C 1500.7 477 1502.4 479.5 1502.4 482.7" fill="none"/><path d=" M 1495.3 482.7 C 1495.3 479.5 1496.9 477 1498.8 477 C 1500.7 477 1502.4 479.5 1502.4 482.7" fill="none" mask="url(#_mask_TN0Jd4ojqoyfRjS8bcEH5GGLnQM4EgW1)" vector-effect="non-scaling-stroke" stroke-width="4.476" stroke="rgb(255,255,255)" stroke-linejoin="round" stroke-linecap="round" stroke-miterlimit="4"/><circle vector-effect="non-scaling-stroke" cx="1490.8" cy="451.2" r="9.200000000000045" fill="rgb(68,82,242)"/><circle vector-effect="non-scaling-stroke" cx="1487.3" cy="437.7" r="9.200000000000045" fill="rgb(68,82,242)"/><circle vector-effect="non-scaling-stroke" cx="1475.5" cy="433.6" r="9.200000000000045" fill="rgb(68,82,242)"/><circle vector-effect="non-scaling-stroke" cx="1466.4" cy="431.5" r="5.599999999999909" fill="rgb(68,82,242)"/><linearGradient id="_lgradient_1" x1="0" y1="0.5" x2="0.21245428628704874" y2="-0.47717100665045353" gradientTransform="matrix(41.4,0,0,63.9,1435.2,547.8)" gradientUnits="userSpaceOnUse"><stop offset="0%" stop-opacity="1" style="stop-color:rgb(255,231,92)"/></linearGradient><path d=" M 1435.2 565.3 C 1453.4 565.3 1467.8 555.8 1476.6 547.8 L 1435.2 565.3 Z " fill="url(#_lgradient_1)"/><path d=" M 1434.1 559.3 C 1426.4 539.8 1422.6 536.6 1408.4 526.1 C 1406.1 527.1 1404.8 528.4 1404.5 530.3 C 1403.4 536.8 1409 539 1419.5 560.2 L 1434.1 559.3 Z " fill="rgb(191,15,118)"/><path d=" M 1485.8 467.5 C 1503.8 466.2 1508.5 466.9 1509.4 471.3 C 1510.3 475.7 1505.1 479.2 1486.7 488.7 L 1485.8 467.5 Z " fill="rgb(255,231,92)"/><path d=" M 1446.8 493.8 C 1445.8 496.6 1445.8 501.3 1445.9 506.5 C 1446 511.7 1446.5 518.4 1440.1 518.9 C 1433.7 519.4 1430.3 512 1428.6 508.8 C 1426.9 505.6 1426.5 505.2 1425.6 504.7 C 1424.7 504.2 1421 502.3 1417.7 500.6 C 1414.4 498.9 1412.4 497.2 1413.3 496.2 C 1414.2 495.2 1422.9 497 1432.3 497.9 C 1441.7 498.8 1443.2 495.8 1445.9 492.6 C 1446.4 492 1447.4 492 1446.8 493.8 L 1446.8 493.8 Z " fill="rgb(196,6,85)"/><path d=" M 1445.9 492.6 C 1443.9 495 1442.5 497.3 1438 497.9 L 1445.9 492.6 Z " fill="rgb(0,0,0)"/><path d=" M 1430.8 512.9 C 1432.8 516 1435.8 519.3 1440.1 518.9 C 1446.5 518.4 1446 511.7 1445.9 506.5 C 1445.9 504.6 1445.8 502.8 1445.9 501.1 C 1439.2 499.9 1431.9 503.1 1430.8 512.9 Z " fill="rgb(68,82,242)"/><path d=" M 1443.3 499.9 C 1440.2 501.7 1436.6 506.3 1436.3 513.1 M 1420.6 474.1 C 1421.5 467.9 1423.1 465.8 1424.2 465.6 C 1425.3 465.4 1425.2 467.9 1424.8 473.5 M 1450.6 473.5 C 1452.7 464.4 1455.7 463.9 1457 464.5 C 1458.3 465.1 1459.2 467.4 1458.9 474.1" fill="none" vector-effect="non-scaling-stroke" stroke-width="2.238" stroke="rgb(0,0,0)" stroke-linejoin="round" stroke-linecap="round" stroke-miterlimit="4"/><path d=" M 1460.375 482.12 C 1458.522 479.578 1459.624 475.614 1462.834 473.272 C 1466.045 470.931 1470.157 471.094 1472.01 473.636 C 1473.864 476.178 1472.762 480.142 1469.551 482.483 C 1466.34 484.825 1462.229 484.662 1460.375 482.12 Z " fill="rgb(250,128,186)"/><mask id="_mask_cV8mDWn3UmYnkPt903SnAODTsmD0dAmq" x="-200%" y="-200%" width="400%" height="400%"><rect x="-200%" y="-200%" width="400%" height="400%" style="fill:white;"/><path d=" M 1502.4 482.7 C 1502.4 485.8 1500.8 488.3 1498.8 488.3 C 1496.8 488.3 1495.3 485.8 1495.3 482.7" fill="black" stroke="none"/></mask><path d=" M 1502.4 482.7 C 1502.4 485.8 1500.8 488.3 1498.8 488.3 C 1496.8 488.3 1495.3 485.8 1495.3 482.7" fill="none"/><path d=" M 1502.4 482.7 C 1502.4 485.8 1500.8 488.3 1498.8 488.3 C 1496.8 488.3 1495.3 485.8 1495.3 482.7" fill="none" mask="url(#_mask_cV8mDWn3UmYnkPt903SnAODTsmD0dAmq)" vector-effect="non-scaling-stroke" stroke-width="4.476" stroke="rgb(255,255,255)" stroke-linejoin="round" stroke-linecap="round" stroke-miterlimit="4"/><path d=" M 1496.9 501.6 L 1494.2 496.6" fill="rgb(255,255,255)"/><path d=" M 1516.3 509.6 L 1499.8 510.4 C 1497.6 511.8 1498.4 512.7 1499.8 514 L 1516.2 513.4 C 1518.7 511.3 1518 510.9 1516.3 509.6 L 1516.3 509.6 Z " fill="rgb(68,82,242)"/><path d=" M 1516.2 513.4 C 1517.3 518 1517.8 521.1 1518.1 523 C 1518.4 524.9 1517.6 526 1508.1 526.3 C 1498.6 526.6 1499 525.1 1499.1 522.8 C 1499.2 520.5 1499.8 514 1499.8 514 L 1516.2 513.4 Z " fill="rgb(255,231,92)"/><path d=" M 1488.2 545.1 C 1493 527.6 1494.6 521.9 1484.8 522.4" fill="rgb(191,15,118)"/><mask id="_mask_4TenmwLKVaNrYGvuOcJvArvYruWBkbtk" x="-200%" y="-200%" width="400%" height="400%"><rect x="-200%" y="-200%" width="400%" height="400%" style="fill:white;"/><path d=" M 1413.1 548.5 C 1419 548.1 1421.7 548 1423.1 550.2 C 1424.5 552.4 1423.5 556.3 1422.3 562.9 C 1421.1 569.5 1419.6 568.4 1412.1 568.9" fill="black" stroke="none"/></mask><path d=" M 1413.1 548.5 C 1419 548.1 1421.7 548 1423.1 550.2 C 1424.5 552.4 1423.5 556.3 1422.3 562.9 C 1421.1 569.5 1419.6 568.4 1412.1 568.9" fill="none"/><path d=" M 1413.1 548.5 C 1419 548.1 1421.7 548 1423.1 550.2 C 1424.5 552.4 1423.5 556.3 1422.3 562.9 C 1421.1 569.5 1419.6 568.4 1412.1 568.9" fill="none" mask="url(#_mask_4TenmwLKVaNrYGvuOcJvArvYruWBkbtk)" vector-effect="non-scaling-stroke" stroke-width="10" stroke="rgb(255,255,255)" stroke-linejoin="round" stroke-linecap="round" stroke-miterlimit="4"/><path d=" M 1457.418 454.78 C 1455.341 454.488 1453.743 453.63 1453.85 452.865 C 1453.958 452.1 1455.731 451.715 1457.808 452.007 C 1459.885 452.299 1461.484 453.157 1461.376 453.922 C 1461.269 454.688 1459.495 455.072 1457.418 454.78 Z " fill="rgb(0,0,0)"/><path d=" M 1423.966 457.702 C 1422.545 457.502 1421.466 456.808 1421.559 456.152 C 1421.651 455.496 1422.879 455.126 1424.3 455.325 C 1425.721 455.525 1426.8 456.22 1426.708 456.875 C 1426.616 457.531 1425.387 457.902 1423.966 457.702 Z " fill="rgb(0,0,0)"/><circle vector-effect="non-scaling-stroke" cx="1479.4" cy="628.7" r="27.299999999999955" fill="rgb(235,69,159)"/><path d=" M 1432.3 559 C 1461.6 547.7 1480.5 540.5 1493.8 538.4" fill="rgb(235,69,159)"/><path d=" M 1455.9 620.2 C 1457.5 621.2 1462.5 619.4 1468.2 615.1 C 1473.9 610.8 1477 606.4 1476.4 604.6 C 1474.2 598.5 1470.9 591.3 1469.3 588 C 1467.7 584.7 1462.4 582.9 1452.7 591.3 C 1443 599.7 1441.4 604 1441.9 607.4 C 1442.4 610.8 1448 615.1 1455.9 620.2 L 1455.9 620.2 Z " fill="rgb(191,15,118)"/><path d=" M 1449.5 585.1 C 1458.8 574.7 1462.4 567.5 1463 564.2 C 1463.6 560.9 1463.8 558.1 1456.1 551.1 C 1448.4 544.1 1444.1 542 1440.3 542.3 C 1436.5 542.6 1433 546.9 1429.7 555.7 C 1429.2 557.2 1434.7 560.6 1433.1 561 C 1424 563.8 1421.4 576 1420 581.2 C 1418.6 586.4 1418.4 590.9 1425.3 595 C 1432.2 599.1 1435 601.4 1449.5 585.1 L 1449.5 585.1 Z " fill="rgb(255,231,92)"/><path d=" M 1437.2 550.8 C 1425.1 551.2 1419.5 552.1 1416.9 553.4 C 1414.3 554.7 1414.4 557.4 1414.8 560 C 1415.2 562.6 1415.7 563.5 1422.2 563.7 C 1428.7 563.9 1437.2 563.7 1437.2 563.7 L 1437.2 550.8 Z " fill="rgb(255,231,92)"/><path d=" M 1441.1 592.7 L 1448.1 601.1 L 1460.3 591.3 L 1451.8 579 L 1441.1 592.7 L 1441.1 592.7 Z " fill="rgb(255,231,92)"/><path d=" M 1345.5 494.9 C 1344.749 495.285 1344.044 495.754 1343.4 496.3 L 1345.5 494.9 Z " fill="rgb(0,0,0)"/><mask id="_mask_x3e2FVdckNM4HcWCpYkigS7klT9byy7z" x="-200%" y="-200%" width="400%" height="400%"><rect x="-200%" y="-200%" width="400%" height="400%" style="fill:white;"/><path d=" M 1439.3 551.5 C 1434.2 554.1 1433.8 558.8 1434.7 562.8 C 1429.7 565.1 1428.4 567.9 1429.3 574.1 C 1426.6 575.7 1424.3 577.7 1425.2 582.7" fill="black" stroke="none"/></mask><path d=" M 1439.3 551.5 C 1434.2 554.1 1433.8 558.8 1434.7 562.8 C 1429.7 565.1 1428.4 567.9 1429.3 574.1 C 1426.6 575.7 1424.3 577.7 1425.2 582.7" fill="none"/><path d=" M 1439.3 551.5 C 1434.2 554.1 1433.8 558.8 1434.7 562.8 C 1429.7 565.1 1428.4 567.9 1429.3 574.1 C 1426.6 575.7 1424.3 577.7 1425.2 582.7" fill="none" mask="url(#_mask_x3e2FVdckNM4HcWCpYkigS7klT9byy7z)" vector-effect="non-scaling-stroke" stroke-width="4.476" stroke="rgb(0,0,0)" stroke-linejoin="round" stroke-linecap="round" stroke-miterlimit="4"/><path d=" M 1441.6 593.2 L 1445.9 589.2 L 1444.4 596.6 L 1441.6 593.2 L 1441.6 593.2 Z " fill="rgb(0,0,0)"/><path d=" M 1352.5 545.8 L 1365.2 545 L 1352.5 551.8 L 1352.5 545.8 L 1352.5 545.8 Z " fill="rgb(0,0,0)"/><path d=" M 1343.2 564.8 L 1370.7 568.2 L 1370.6 577.3 L 1341.9 575.5 L 1343.2 564.8 L 1343.2 564.8 Z " fill="rgb(235,69,159)"/><mask id="_mask_NhECK4GkT7VhOrEAnif80FUdQ5qQtPtw" x="-200%" y="-200%" width="400%" height="400%"><rect x="-200%" y="-200%" width="400%" height="400%" style="fill:white;"/><line x1="1485.8" y1="587.1" x2="1483.2" y2="582.7" fill="black" stroke="none"/></mask><line x1="1485.8" y1="587.1" x2="1483.2" y2="582.7" mask="url(#_mask_NhECK4GkT7VhOrEAnif80FUdQ5qQtPtw)" vector-effect="non-scaling-stroke" stroke-width="4.476" stroke="rgb(0,0,0)" stroke-linejoin="round" stroke-linecap="round" stroke-miterlimit="4"/></g><g><path d=" M 1259.3 840.4 C 1254.723 839.41 1249.991 839.376 1245.4 840.3 C 1244.6 834.6 1240 829.1 1228.5 818.6 C 1213.7 805.1 1209.9 788.2 1209.9 771.1 L 1168.9 804.4 L 1159.1 845.6 C 1173.8 842.1 1188.7 839.9 1204.2 846.2 L 1209.4 848.6" fill="rgb(255,198,25)"/><path d=" M 1209.8 771.2 C 1210.1 778.9 1208.3 788.2 1204.6 797.7 C 1195.7 820.6 1177.9 839.8 1162.1 844.9 L 1169.1 843.5 C 1183.4 835.8 1198.2 818.4 1206 798.2 C 1235.023 769.177 1282.077 769.177 1311.1 798.2 C 1340.123 827.223 1340.123 874.277 1311.1 903.3" fill="rgb(255,140,25)"/><path d=" M 1144.901 843.883 C 1131.234 835.768 1132.582 808.22 1147.911 782.404 C 1163.239 756.587 1186.781 742.216 1200.448 750.331 C 1214.116 758.446 1212.767 785.995 1197.438 811.811 C 1182.11 837.627 1158.568 851.998 1144.901 843.883 Z " fill="rgb(255,198,25)"/><path d=" M 1191 753.5 C 1175.8 753.5 1154.4 774.7 1144.4 799.8 C 1134.4 824.9 1139.9 840.9 1155 838.8 C 1170.1 836.7 1188.1 817.9 1197.9 795.8 C 1207.7 773.7 1205.4 753.5 1191 753.5 Z " fill="rgb(255,140,25)"/><path d=" M 1191 753.5 C 1175.8 753.5 1154.4 774.7 1144.4 799.8 C 1134.4 824.9 1139.9 840.9 1155 838.8 C 1170.1 836.7 1188.1 817.9 1197.9 795.8 C 1207.7 773.7 1205.4 753.5 1191 753.5 Z " fill="rgb(255,140,25)"/><path d=" M 1197.9 795.8 C 1199.757 791.485 1201.294 787.04 1202.5 782.5" fill="rgb(0,0,0)"/><linearGradient id="_lgradient_2" x1="0.7367173044534105" y1="0.1097606388717498" x2="0.2866970368145054" y2="0.5397551570810487" gradientTransform="matrix(98.373,0,0,60.951,1098.227,798.5)" gradientUnits="userSpaceOnUse"><stop offset="0%" stop-opacity="1" style="stop-color:rgb(209,21,131)"/><stop offset="100%" stop-opacity="1" style="stop-color:rgb(235,80,164)"/></linearGradient><path d=" M 1196.6 798.5 C 1193.639 804.598 1190.089 810.393 1186 815.8 C 1179.2 818.3 1177.6 824.7 1174 831.9 C 1169.5 840.9 1161.8 849.5 1148.2 855.3 C 1124.8 865.3 1106.7 854.8 1101.1 849.2 C 1095.5 843.6 1098.2 836.7 1108.2 835.8 C 1118.2 834.9 1130.8 834.6 1139.5 821.7" fill="url(#_lgradient_2)"/><mask id="_mask_vqZAdchT3LgNlQduwH69Z7MsOQTbxt1g" x="-200%" y="-200%" width="400%" height="400%"><rect x="-200%" y="-200%" width="400%" height="400%" style="fill:white;"/><path d=" M 1170.7 800.6 C 1159.8 808 1157.8 821.7 1150.2 830.7 C 1142.6 839.7 1135.5 841 1135.5 841" fill="black" stroke="none"/></mask><path d=" M 1170.7 800.6 C 1159.8 808 1157.8 821.7 1150.2 830.7 C 1142.6 839.7 1135.5 841 1135.5 841" fill="none"/><path d=" M 1170.7 800.6 C 1159.8 808 1157.8 821.7 1150.2 830.7 C 1142.6 839.7 1135.5 841 1135.5 841" fill="none" mask="url(#_mask_vqZAdchT3LgNlQduwH69Z7MsOQTbxt1g)" vector-effect="non-scaling-stroke" stroke-width="3.406" stroke="rgb(0,0,0)" stroke-linejoin="miter" stroke-linecap="round" stroke-miterlimit="10"/><path d=" M 1201 758.7 L 1199.5 761.7 C 1197.6 765.2 1194.9 765.4 1189.9 765.4 C 1184.9 765.4 1185.6 762.6 1191.6 753.5" fill="rgb(255,255,255)"/><path d=" M 1244.6 850.1 C 1246.2 847.4 1246.4 844.6 1246.4 841.5 C 1246.4 841.942 1246.042 842.3 1245.6 842.3" fill="rgb(0,0,0)"/><mask id="_mask_FeKvT5wZ7WzW6XVwQ4ZUlYfTuQh2YSJI" x="-200%" y="-200%" width="400%" height="400%"><rect x="-200%" y="-200%" width="400%" height="400%" style="fill:white;"/><line x1="1226.6" y1="871.1" x2="1234.2" y2="891.2" fill="black" stroke="none"/></mask><line x1="1226.6" y1="871.1" x2="1234.2" y2="891.2" mask="url(#_mask_FeKvT5wZ7WzW6XVwQ4ZUlYfTuQh2YSJI)" vector-effect="non-scaling-stroke" stroke-width="11.286" stroke="rgb(255,198,25)" stroke-linejoin="miter" stroke-linecap="round" stroke-miterlimit="10"/><mask id="_mask_Omr7FIiPxiwkalBpLvTrqz1uxOq28mjE" x="-200%" y="-200%" width="400%" height="400%"><rect x="-200%" y="-200%" width="400%" height="400%" style="fill:white;"/><line x1="1234.9" y1="863.9" x2="1242.5" y2="884" fill="black" stroke="none"/></mask><line x1="1234.9" y1="863.9" x2="1242.5" y2="884" mask="url(#_mask_Omr7FIiPxiwkalBpLvTrqz1uxOq28mjE)" vector-effect="non-scaling-stroke" stroke-width="11.286" stroke="rgb(255,198,25)" stroke-linejoin="miter" stroke-linecap="round" stroke-miterlimit="10"/><mask id="_mask_QSO2d6NqIYXRlPW9KvBFWYYbIYto8tNE" x="-200%" y="-200%" width="400%" height="400%"><rect x="-200%" y="-200%" width="400%" height="400%" style="fill:white;"/><line x1="1243.2" y1="856.7" x2="1250.8" y2="876.7" fill="black" stroke="none"/></mask><line x1="1243.2" y1="856.7" x2="1250.8" y2="876.7" mask="url(#_mask_QSO2d6NqIYXRlPW9KvBFWYYbIYto8tNE)" vector-effect="non-scaling-stroke" stroke-width="11.286" stroke="rgb(255,198,25)" stroke-linejoin="miter" stroke-linecap="round" stroke-miterlimit="10"/><mask id="_mask_uqCXX1LIiUWKiP5pURTGYWfNPHPUs6Tj" x="-200%" y="-200%" width="400%" height="400%"><rect x="-200%" y="-200%" width="400%" height="400%" style="fill:white;"/><path d=" M 1260.9 859.2 C 1258.9 854.1 1253.1 853.5 1248 858 L 1227.4 875.9 C 1222.2 880.4 1219.6 888.3 1221.5 893.4 C 1223.4 898.5 1229.3 899 1234.4 894.5 L 1255.1 876.6 C 1260.2 872.1 1262.8 864.3 1260.9 859.2 Z " fill="black" stroke="none"/></mask><path d=" M 1260.9 859.2 C 1258.9 854.1 1253.1 853.5 1248 858 L 1227.4 875.9 C 1222.2 880.4 1219.6 888.3 1221.5 893.4 C 1223.4 898.5 1229.3 899 1234.4 894.5 L 1255.1 876.6 C 1260.2 872.1 1262.8 864.3 1260.9 859.2 Z " fill="none"/><path d=" M 1260.9 859.2 C 1258.9 854.1 1253.1 853.5 1248 858 L 1227.4 875.9 C 1222.2 880.4 1219.6 888.3 1221.5 893.4 C 1223.4 898.5 1229.3 899 1234.4 894.5 L 1255.1 876.6 C 1260.2 872.1 1262.8 864.3 1260.9 859.2 Z " fill="none" mask="url(#_mask_uqCXX1LIiUWKiP5pURTGYWfNPHPUs6Tj)" vector-effect="non-scaling-stroke" stroke-width="7.524" stroke="rgb(255,140,25)" stroke-linejoin="miter" stroke-linecap="round" stroke-miterlimit="10"/><path d=" M 1254.4 875.1 C 1261.439 879.888 1267.512 885.961 1272.3 893 C 1261.379 892.57 1256.109 891.522 1255.529 890.058 C 1254.949 888.595 1259.279 887.27 1265.2 887.1" fill="rgb(255,140,25)"/><path d="M 1257.484 807.974 L 1257.484 807.974 C 1259.006 809.495 1259.013 811.957 1257.498 813.47 L 1257.498 813.47 C 1255.984 814.982 1253.518 814.976 1251.996 813.456 L 1251.996 813.456 C 1250.474 811.935 1250.467 809.473 1251.982 807.96 L 1251.982 807.96 C 1253.496 806.448 1255.962 806.454 1257.484 807.974 Z" style="fill:none;stroke:#000000;stroke-width:1.703;stroke-linecap:round;stroke-miterlimit:2;"/><line x1="1143" y1="766.4" x2="1128.9" y2="758.5"/><line x1="1124.9" y1="804.3" x2="1115.8" y2="811"/></g><path d=" M 537.2 82.7 C 549.102 80.242 560.742 87.898 563.2 99.8 C 565.658 111.702 558.002 123.342 546.1 125.8" fill="rgb(104,116,247)"/><g><path d=" M 1519.2 121.3 C 1519.1 121.5 1518.9 121.6 1518.8 121.5 C 1515.7 119.3 1514.3 119.7 1513.5 120.8 C 1512.7 121.9 1512.7 123.7 1513 126.3" fill="rgb(128,138,255)"/><circle vector-effect="non-scaling-stroke" cx="1491" cy="131.5" r="12.400000000000091" fill="rgb(128,138,255)"/><mask id="_mask_ugxwXksxGGSXOoBekofir0Q0ES2gCvWj" x="-200%" y="-200%" width="400%" height="400%"><rect x="-200%" y="-200%" width="400%" height="400%" style="fill:white;"/><path d=" M 1487.3 78.1 C 1488.9 84.2 1490.4 95.4 1490.4 95.4" fill="black" stroke="none"/></mask><path d=" M 1487.3 78.1 C 1488.9 84.2 1490.4 95.4 1490.4 95.4" fill="none"/><path d=" M 1487.3 78.1 C 1488.9 84.2 1490.4 95.4 1490.4 95.4" fill="none" mask="url(#_mask_ugxwXksxGGSXOoBekofir0Q0ES2gCvWj)" vector-effect="non-scaling-stroke" stroke-width="2.466" stroke="rgb(0,0,0)" stroke-linejoin="round" stroke-linecap="round" stroke-miterlimit="4"/><path d=" M 1412.2 111" fill="rgb(52,66,217)"/><path d=" M 1447.6 101.3 C 1453.4 99.1 1460.5 103.2 1463.4 110.4 C 1466.3 117.6 1464 125.3 1458.2 127.6 L 1475 126.5 C 1489.2 121 1496 113.3 1490.5 99.2 C 1486.4 88.8 1477 85.4 1464.2 90.4 C 1451.4 95.4 1447.6 101.3 1447.6 101.3 L 1447.6 101.3 Z " fill="rgb(0,0,0)"/><path d=" M 1458.8 97.7 C 1464 104.4 1467.1 108.3 1468.5 109.3 C 1469.9 110.3 1469.9 109.5 1469.1 105.9 C 1468.3 102.3 1465.8 89.6 1465.8 89.6 L 1458.8 97.7 Z " fill="rgb(255,255,255)"/><path d=" M 1450.3 105.6 C 1454.1 110.5 1456.4 113.4 1457.4 114.1 C 1458.4 114.8 1458.4 114.2 1457.9 111.5 C 1457.4 108.8 1455.4 99.6 1455.4 99.6 L 1450.3 105.6 Z " fill="rgb(128,138,255)"/><path d=" M 1475.6 124.3 C 1475.1 118.1 1474.8 114.5 1475.1 113.3 C 1475.4 112.1 1475.8 112.5 1477.1 114.8 L 1483.4 125.2 L 1475.6 124.3 Z " fill="rgb(255,255,255)"/><linearGradient id="_lgradient_3" x1="0" y1="0.5" x2="-0.3632512304729805" y2="-0.4316912275855481" gradientTransform="matrix(0,0,0,1132.838,1451.6,125.2)" gradientUnits="userSpaceOnUse"><stop offset="0%" stop-opacity="1" style="stop-color:rgb(102,188,255)"/><stop offset="100%" stop-opacity="1" style="stop-color:rgb(140,217,255)"/></linearGradient><path d=" M 1451.6 125.2 L 1451.6 125.2 Z " fill="url(#_lgradient_3)"/><path d=" M 1483.9 88.8" fill="rgb(235,69,159)"/><path d=" M 1499.5 64.6 C 1515.3 69.8 1525.6 74 1525.6 74 M 1513.3 88.3 C 1508.1 82.9 1501 76 1495.2 70.3 M 1429.9 112.9 C 1428.6 104.1 1429.2 90.5 1429.2 90.5" fill="none" vector-effect="non-scaling-stroke" stroke-width="1.233" stroke="rgb(0,0,0)" stroke-linejoin="round" stroke-linecap="round" stroke-miterlimit="4"/><path d=" M 1403.9 154.3 L 1403.5 154.3 C 1401.8 152.1 1400.7 152 1399.8 152.7" fill="rgb(52,66,217)"/><circle vector-effect="non-scaling-stroke" cx="1381.2" cy="155.6" r="9.400000000000091" fill="rgb(52,66,217)"/></g><g><path d=" M 618.962 989.913 L 637.998 988.348 L 638.971 1000.178 L 619.935 1001.743 L 618.962 989.913 Z " fill="rgb(52,66,217)"/><path d=" M 744.6 975.5 C 754.4 969.6 753.5 962.1 742.4 958.9 L 722 953 C 710.9 949.8 693.7 952.1 683.9 958.1 L 626.8 992.6 C 617 998.6 618 1006 629 1009.2 L 649.4 1015.1 C 660.5 1018.3 677.7 1016 687.5 1010 L 744.6 975.5 Z " fill="rgb(52,66,217)"/><path d=" M 731.315 956.125 L 750.351 954.56 L 751.324 966.39 L 732.288 967.955 L 731.315 956.125 Z " fill="rgb(209,21,131)"/><path d=" M 743.6 963.8 C 753.5 957.8 752.5 950.3 741.4 947.1 L 721 941.3 C 709.9 938.1 692.8 940.4 682.9 946.3 L 625.9 980.8 C 616 986.8 617 994.3 628.1 997.4 L 648.5 1003.3 C 659.6 1006.5 676.7 1004.2 686.6 998.2 L 743.6 963.8 Z " fill="rgb(88,101,242)"/><path d=" M 744.6 975.5 L 743.4 976.2 L 700.6 952.4 C 708.1 951.2 715.9 951.3 722 953 L 742.4 958.9" fill="rgb(209,21,131)"/><path d=" M 687.7 997.6 L 742.5 964.4 L 681.8 947 L 627 980.1 L 687.7 997.6 L 687.7 997.6 Z " fill="rgb(0,0,0)"/><path d=" M 743.4 976.2 L 742.5 964.4 L 687.7 997.6 L 688.7 1009.3 L 743.4 976.2 L 743.4 976.2 Z " fill="rgb(0,0,0)"/><path d=" M 743.2 959.2 C 753.1 953.3 752.1 945.8 741 942.6 L 720.6 936.7 C 709.5 933.5 692.4 935.8 682.5 941.8 L 625.5 976.3 C 615.6 982.3 616.6 989.7 627.7 992.9 L 648.1 998.8 C 659.2 1002 676.3 999.7 686.2 993.7 L 743.2 959.2 Z " fill="rgb(255,255,255)"/><path d=" M 621.8 977.4 C 631.8 1009.2 629.5 1012.4 640.7 1000.4 C 651.9 988.4 662.1 981.8 694 992.9 C 732.5 1006.4 728.7 1006 730.9 975.8 C 731.9 963.1 739.7 955.8 744.9 944.9 L 621.8 977.4 Z " fill="rgb(255,198,25)"/><path d=" M 622.919 984.777 C 621.805 976.852 635.633 968.348 653.778 965.798 C 671.923 963.248 687.559 967.611 688.673 975.536 C 689.786 983.461 675.959 991.965 657.814 994.516 C 639.669 997.066 624.033 992.702 622.919 984.777 Z " fill="rgb(235,69,159)"/><path d=" M 658.147 973.078 C 657.033 965.153 670.861 956.649 689.006 954.099 C 707.151 951.549 722.787 955.912 723.901 963.837 C 725.015 971.762 711.187 980.267 693.042 982.817 C 674.897 985.367 659.261 981.003 658.147 973.078 Z " fill="rgb(209,21,131)"/><path d=" M 682.796 952.851 C 681.683 944.926 695.51 936.422 713.655 933.872 C 731.8 931.322 747.436 935.685 748.55 943.61 C 749.664 951.535 735.836 960.039 717.691 962.59 C 699.546 965.14 683.91 960.776 682.796 952.851 Z " fill="rgb(235,69,159)"/><path d=" M 720.7 930.5 L 620.3 969.7 C 609.6 973.6 610.8 982.9 622.9 982.4" fill="rgb(41,204,122)"/><path d=" M 616.628 960.11 L 635.664 958.545 L 636.637 970.375 L 617.601 971.94 L 616.628 960.11 Z " fill="rgb(52,66,217)"/><path d=" M 742.1 945.7 C 752 939.7 751 932.2 739.9 929 L 719.5 923.2 C 708.4 920 691.3 922.3 681.4 928.2 L 624.4 962.7 C 614.5 968.7 615.5 976.2 626.6 979.3 L 647 985.2 C 658.1 988.4 675.2 986.1 685.1 980.1 L 742.1 945.7 Z " fill="rgb(52,66,217)"/><path d=" M 729.442 930.786 L 748.542 929.258 L 749.492 941.128 L 730.392 942.656 L 729.442 930.786 Z " fill="rgb(209,21,131)"/><path d=" M 741.2 933.9 C 751 927.9 750 920.4 738.9 917.2 L 718.5 911.4 C 707.4 908.2 690.3 910.5 680.4 916.4 L 623.4 950.9 C 613.5 956.9 614.5 964.4 625.6 967.6 L 646 973.4 C 657.1 976.6 674.2 974.3 684.1 968.4 L 741.2 933.9 Z " fill="rgb(88,101,242)"/><path d=" M 742.1 945.6 L 741 946.3 L 698.1 922.5 C 705.6 921.3 713.5 921.4 719.5 923.2 L 739.9 929" fill="rgb(209,21,131)"/><path d=" M 685.3 967.7 L 740 934.6 L 679.3 917.1 L 624.5 950.2 L 685.3 967.7 L 685.3 967.7 Z " fill="rgb(52,66,217)"/><path d=" M 741 946.3 L 740 934.6 L 685.3 967.7 L 686.2 979.5 L 741 946.3 L 741 946.3 Z " fill="rgb(0,0,0)"/><mask id="_mask_oZc3pDpYkjEwZDxKEjU0QvCGraTjnDwX" x="-200%" y="-200%" width="400%" height="400%"><rect x="-200%" y="-200%" width="400%" height="400%" style="fill:white;"/><line x1="682.3" y1="942.4" x2="668.2" y2="898" fill="black" stroke="none"/></mask><line x1="682.3" y1="942.4" x2="668.2" y2="898" mask="url(#_mask_oZc3pDpYkjEwZDxKEjU0QvCGraTjnDwX)" vector-effect="non-scaling-stroke" stroke-width="4.192" stroke="rgb(0,0,0)" stroke-linejoin="miter" stroke-linecap="round" stroke-miterlimit="10"/><circle vector-effect="non-scaling-stroke" cx="676.7" cy="924.6" r="11.700000000000045" fill="rgb(41,204,122)"/><mask id="_mask_KISEeYPIRQ87Y2S5IIQm5S1d3iLzowjL" x="-200%" y="-200%" width="400%" height="400%"><rect x="-200%" y="-200%" width="400%" height="400%" style="fill:white;"/><line x1="674.4" y1="917.5" x2="668.2" y2="898" fill="black" stroke="none"/></mask><line x1="674.4" y1="917.5" x2="668.2" y2="898" mask="url(#_mask_KISEeYPIRQ87Y2S5IIQm5S1d3iLzowjL)" vector-effect="non-scaling-stroke" stroke-width="4.192" stroke="rgb(0,0,0)" stroke-linejoin="miter" stroke-linecap="round" stroke-miterlimit="10"/><circle vector-effect="non-scaling-stroke" cx="668.2" cy="898" r="4.100000000000023" fill="rgb(235,69,159)"/><path d=" M 649.978 967.076 C 649.713 965.218 653.003 963.211 657.32 962.597 C 661.636 961.982 665.356 962.992 665.62 964.85 C 665.884 966.708 662.594 968.715 658.278 969.329 C 653.961 969.943 650.242 968.934 649.978 967.076 Z " fill="rgb(0,0,0)"/><path d=" M 722.291 923.197 C 722.027 921.34 725.317 919.333 729.633 918.718 C 733.95 918.104 737.669 919.113 737.933 920.971 C 738.198 922.829 734.908 924.836 730.591 925.45 C 726.275 926.065 722.555 925.055 722.291 923.197 Z " fill="rgb(0,0,0)"/><path d=" M 799.6 992.1 C 791 998.3 779.8 998.7 774.7 993 C 769.6 987.3 773.3 982.9 783.1 980.6" fill="rgb(255,192,105)"/></g><g><path d=" M 1003.8 132.9 C 1004.2 126.9 1000.5 121.4 993.7 121.9 C 986.9 122.4 983.4 124.7 975.8 128.5" fill="rgb(255,140,25)"/><linearGradient id="_lgradient_4" x1="0.8686166421208394" y1="0.6679515300361261" x2="0.3423804004004225" y2="0.33447719223839406" gradientTransform="matrix(102.258,0,0,63.711,940.367,132.889)" gradientUnits="userSpaceOnUse"><stop offset="0%" stop-opacity="1" style="stop-color:rgb(255,198,25)"/><stop offset="100%" stop-opacity="1" style="stop-color:rgb(255,231,92)"/></linearGradient><path d=" M 1019.2 151.1 C 1014.6 144.1 1012.3 133.9 1003.8 132.9 C 991 132.6 980.3 138.6 972.5 139.8 C 966.9 140.6 953.7 140.8 948.3 140.9 C 942.9 141 941.9 141.6 941.1 142.3 C 940.3 143 940 144.3 941 144.8 L 940.6 146.9 L 948.5 149.7 L 983.3 162.1 L 1002 170.9 L 1024.1 185.1 L 1039.7 196.6 L 1042.2 196.4 C 1042.8 195.6 1042.7 194.5 1042.3 188.6" fill="url(#_lgradient_4)"/><path d=" M 1042 196.6 C 1042.4 196.2 1042.6 195.8 1042.6 194.5 C 1042.3 197.6 1039 194.6 1036.5 192.3 C 1034 190 1027.5 181.1 1016 176.3 C 994.9 167.3 990.7 157.7 968.1 155 C 957.4 153.8 946.8 147.1 943.5 145.8 C 940.2 144.5 939.3 144.3 939.4 142.8" fill="rgb(237,95,0)"/><path d=" M 1042 196.6 C 1042.4 196.2 1042.6 195.8 1042.6 194.5 C 1042.3 197.6 1039 194.6 1036.5 192.3" fill="rgb(0,0,0)"/><path d=" M 1046.3 203.2 C 1045.1 199.6 1045.2 196.5 1045.5 192.5 C 1045.8 188.5 1044.2 181.7 1036.8 172.6 L 1033.4 188.9 C 1039.4 195.8 1042.3 201.8 1042.3 205.6 C 1042.3 209.4 1042.9 215.6 1046.4 214.8 C 1049.9 214 1047.5 206.8 1046.3 203.2 Z " fill="rgb(255,198,25)"/><path d=" M 951.8 146.5 C 973.063 125.237 1007.537 125.237 1028.8 146.5 C 1050.063 167.763 1050.063 202.237 1028.8 223.5 C 1028.283 230.637 1026.498 234.42 1024.814 232.349 C 1023.129 230.278 1022.183 223.137 1022.7 216.4" fill="rgb(255,120,185)"/><path d=" M 1005.7 145.5 C 1005.4 148.4 1000.6 150.4 994.9 149.9 C 989.2 149.4 984.8 146.6 985 143.6 C 985.2 140.6 988.6 138.8 993 140.8 L 1005.7 145.5 Z " fill="rgb(235,69,159)"/><mask id="_mask_ikuLcFqR66zJ43ZqO6reEZ7quSDVVVzs" x="-200%" y="-200%" width="400%" height="400%"><rect x="-200%" y="-200%" width="400%" height="400%" style="fill:white;"/><path d=" M 986.7 107.2 L 991.1 106.1 L 988 103.4" fill="black" stroke="none"/></mask><path d=" M 986.7 107.2 L 991.1 106.1 L 988 103.4" fill="none"/><path d=" M 986.7 107.2 L 991.1 106.1 L 988 103.4" fill="none" mask="url(#_mask_ikuLcFqR66zJ43ZqO6reEZ7quSDVVVzs)" vector-effect="non-scaling-stroke" stroke-width="4.878" stroke="rgb(102,188,255)" stroke-linejoin="round" stroke-linecap="round" stroke-miterlimit="4"/><path d=" M 996.744 105.456 C 996.74 105.125 997.186 104.851 997.738 104.846 C 998.289 104.84 998.74 105.104 998.744 105.435 C 998.747 105.766 998.302 106.04 997.75 106.045 C 997.198 106.051 996.747 105.787 996.744 105.456 Z " fill="rgb(0,0,0)"/><path d=" M 935.4 135.9 C 934 133.8 931.8 133.1 930.6 134.2 C 929.4 135.3 929.4 137.9 930.8 139.9 C 932.2 141.9 934.3 142.7 935.6 141.6 C 936.9 140.5 936.7 137.9 935.4 135.9 Z " fill="rgb(255,140,25)"/><mask id="_mask_qoWp3jdGnDugsQHwcWdYGHyksz6lisI1" x="-200%" y="-200%" width="400%" height="400%"><rect x="-200%" y="-200%" width="400%" height="400%" style="fill:white;"/><path d=" M 1032.9 181.2 C 1037.5 184.3 1039.6 186.7 1040.8 191.6" fill="black" stroke="none"/></mask><path d=" M 1032.9 181.2 C 1037.5 184.3 1039.6 186.7 1040.8 191.6" fill="none"/><path d=" M 1032.9 181.2 C 1037.5 184.3 1039.6 186.7 1040.8 191.6" fill="none" mask="url(#_mask_qoWp3jdGnDugsQHwcWdYGHyksz6lisI1)" vector-effect="non-scaling-stroke" stroke-width="3.484" stroke="rgb(255,231,92)" stroke-linejoin="miter" stroke-linecap="round" stroke-miterlimit="10"/><mask id="_mask_ClLInDb6ma5SNaMO0BMoD0ZHAPFEFb4K" x="-200%" y="-200%" width="400%" height="400%"><rect x="-200%" y="-200%" width="400%" height="400%" style="fill:white;"/><line x1="1029" y1="113.5" x2="1031.4" y2="113.2" fill="black" stroke="none"/></mask><line x1="1029" y1="113.5" x2="1031.4" y2="113.2" mask="url(#_mask_ClLInDb6ma5SNaMO0BMoD0ZHAPFEFb4K)" vector-effect="non-scaling-stroke" stroke-width="3.484" stroke="rgb(0,0,0)" stroke-linejoin="miter" stroke-linecap="round" stroke-miterlimit="10"/></g><g><line x1="604.7" y1="175.3" x2="589" y2="176.8"/><path d=" M 549.6 178.7 L 551.9 176.1 C 551.9 176.1 564 175 568.6 174.9 C 568.6 174.9 583.2 179.1 588.6 188.2 C 594.3 179 602.1 175.8 604.7 175.3 L 606.6 178.1 L 587 195 L 549.6 178.7 Z " fill="rgb(255,198,25)"/><path d=" M 566.6 193.4 L 566.6 193.4 Z " fill="rgb(102,188,255)"/><path d=" M 566.6 193.4 L 566.6 193.4 Z " fill="rgb(140,217,255)"/><mask id="_mask_Ln06yKKxEfkzPiMBXDuEEnplerl2jLFI" x="-200%" y="-200%" width="400%" height="400%"><rect x="-200%" y="-200%" width="400%" height="400%" style="fill:white;"/><line x1="588.4" y1="190.2" x2="588.1" y2="192.7" fill="black" stroke="none"/></mask><line x1="588.4" y1="190.2" x2="588.1" y2="192.7" mask="url(#_mask_Ln06yKKxEfkzPiMBXDuEEnplerl2jLFI)" vector-effect="non-scaling-stroke" stroke-width="3.042" stroke="rgb(0,0,0)" stroke-linejoin="miter" stroke-linecap="round" stroke-miterlimit="10"/><path d=" M 505.7 158.6 L 505.1 157.6 C 505 157.5 504.7 157.4 504.6 157.5 L 503.4 158.2 L 501.9 155.7 L 488.6 156 C 496.442 155.779 502.979 161.958 503.2 169.8 C 503.421 177.642 497.242 184.179 489.4 184.4" fill="rgb(52,66,217)"/><g><line x1="543.3" y1="128.7" x2="520.6" y2="130.9"/><path d=" M 463.2 133.9 L 466.1 130.1 C 466.1 130.1 483.6 128.4 490.3 128.3 C 490.3 128.3 512.4 134.3 522.1 147.6 C 528.7 134.1 539.6 129.4 543.3 128.7 L 546.7 132.8 L 520.9 157.6 L 463.2 133.9 Z " fill="rgb(255,198,25)"/><path d=" M 490.7 155.3 C 490.7 155.3 489.8 159.3 489.6 161.2 C 489.6 161.2 490.7 163.2 500.5 163.1 L 523.2 163.1 C 526 163.2 527 161.9 524.9 156.6 C 532.2 147.2 545.6 137.6 550.7 134.2" fill="rgb(235,69,159)"/><path d=" M 490.7 155.3 C 490.7 155.3 489.8 159.3 489.6 161.2 C 489.6 161.2 490.7 163.2 500.5 163.1 L 519.5 163.1 C 517.1 163 516.5 162.3 518.8 156.3 C 514.4 150.6 504.5 142.3 490.4 135.2 L 459.6 136.3 C 479.9 144.4 490.7 155.3 490.7 155.3 Z " fill="rgb(255,120,185)"/><mask id="_mask_l3o3xuj49n8qFMbXrcL1ol5KKXHM52aT" x="-200%" y="-200%" width="400%" height="400%"><rect x="-200%" y="-200%" width="400%" height="400%" style="fill:white;"/><line x1="522" y1="150" x2="522.2" y2="151.9" fill="black" stroke="none"/></mask><line x1="522" y1="150" x2="522.2" y2="151.9" mask="url(#_mask_l3o3xuj49n8qFMbXrcL1ol5KKXHM52aT)" vector-effect="non-scaling-stroke" stroke-width="3.042" stroke="rgb(0,0,0)" stroke-linejoin="miter" stroke-linecap="round" stroke-miterlimit="10"/></g></g><path d=" M 1193 1115.1 C 1223.873 1084.227 1273.927 1084.227 1304.8 1115.1 C 1335.673 1145.973 1335.673 1196.027 1304.8 1226.9" fill="rgb(104,116,247)"/></g></svg>