<?xml version="1.0" encoding="UTF-8" standalone="no"?>
<!-- Generator: Gravit.io -->
<svg xmlns="http://www.w3.org/2000/svg" xmlns:xlink="http://www.w3.org/1999/xlink" style="isolation:isolate" viewBox="0 0 500 500" width="500pt" height="500pt"><defs><clipPath id="_clipPath_jVLdKnV0i8kqaBsx11l580vj5AVC4OjE"><rect width="500" height="500"/></clipPath></defs><g clip-path="url(#_clipPath_jVLdKnV0i8kqaBsx11l580vj5AVC4OjE)"><path d=" M 190.774 492.93 C 170.147 487.912 150.518 480.331 132.243 470.545 C 114.681 461.141 98.37 449.7 83.626 436.539 C 71.31 425.545 60.087 413.35 50.144 400.139 C 38.26 384.352 28.202 367.113 20.285 348.739 C 14.449 335.191 9.776 321.027 6.393 306.371 C 2.21 288.252 0 269.382 0 250 C 0 223.04 4.277 197.072 12.188 172.736 C 17.285 157.058 23.89 142.057 31.833 127.906 C 43.749 106.676 58.674 87.357 76.028 70.53 C 91.431 55.595 108.748 42.623 127.574 32.019 C 145.361 22 164.495 14.096 184.634 8.647 C 205.473 3.009 227.388 0 250 0 C 273.009 0 295.297 3.115 316.464 8.947 C 332.26 13.298 347.431 19.163 361.813 26.374 C 382.976 36.985 402.428 50.513 419.641 66.429 C 435.674 81.255 449.764 98.152 461.484 116.694 C 473.511 135.724 483.042 156.486 489.614 178.519 C 496.371 201.17 500 225.165 500 250 C 500 264.679 498.732 279.064 496.3 293.052 C 493.351 310.011 488.691 326.387 482.504 341.993 C 476.176 357.955 468.251 373.113 458.926 387.269 C 447.434 404.716 433.815 420.641 418.44 434.674 C 402.398 449.316 384.445 461.898 365 472 C 347.783 480.944 329.396 487.944 310.132 492.708 C 290.869 497.472 270.727 500 250 500 C 229.598 500 209.763 497.551 190.774 492.93 Z " fill="rgb(235,235,235)"/></g></svg>